<?xml version="1.0" standalone="no"?>
<!DOCTYPE svg PUBLIC "-//W3C//DTD SVG 20010904//EN"
 "http://www.w3.org/TR/2001/REC-SVG-20010904/DTD/svg10.dtd">
<svg version="1.0" xmlns="http://www.w3.org/2000/svg"
 width="700.000000pt" height="700.000000pt" viewBox="0 0 700.000000 700.000000"
 preserveAspectRatio="xMidYMid meet">
<metadata>
Created by potrace 1.14, written by Peter Selinger 2001-2017
</metadata>
<g transform="translate(0.000000,700.000000) scale(0.100000,-0.100000)"
fill="#000000" stroke="none">
<path d="M2698 6848 c-89 -22 -123 -38 -210 -95 -112 -73 -200 -191 -249 -333
-22 -63 -23 -78 -26 -545 -2 -263 -6 -481 -8 -484 -3 -2 -411 -5 -907 -5 -970
-2 -942 0 -1043 -54 -113 -61 -187 -149 -229 -273 l-25 -74 -1 -748 0 -747
1387 2 1388 3 0 218 -1 217 31 1 c39 1 1385 1 1406 0 13 -1 15 -27 14 -208 -1
-115 1 -214 3 -220 3 -10 290 -13 1388 -13 l1384 0 0 743 c0 596 -3 752 -14
792 -46 167 -147 276 -313 338 -58 21 -62 21 -983 23 -509 1 -932 3 -941 3
-14 1 -15 51 -16 464 -1 442 -2 465 -22 543 -36 132 -109 244 -216 332 -57 46
-181 108 -234 117 -19 3 -39 9 -45 13 -6 3 -334 7 -728 7 -655 0 -724 -1 -790
-17z m1497 -172 c116 -23 253 -127 304 -230 50 -102 51 -114 51 -693 l0 -543
33 -1 c17 0 475 -2 1017 -3 542 -2 992 -5 1000 -8 91 -29 150 -79 189 -161
l30 -62 1 -652 1 -653 -1205 0 -1204 0 -4 23 c-2 12 -3 111 -2 220 l1 197 -31
1 c-146 3 -1768 -1 -1774 -5 -4 -2 -7 -101 -7 -220 l0 -216 -1208 0 -1208 0 3
658 c3 648 3 658 24 703 28 60 86 118 149 149 l50 24 992 1 993 0 0 30 c1 17
2 269 3 560 2 520 3 531 25 589 55 148 183 259 333 290 69 14 1374 16 1444 2z"/>
<path d="M2855 6205 c-52 -18 -119 -92 -133 -144 -6 -25 -10 -202 -10 -446 0
-370 1 -405 16 -406 10 -1 351 -2 759 -3 l743 -1 1 35 c0 19 1 202 1 406 1
285 -2 383 -12 420 -17 60 -82 128 -136 143 -26 7 -235 11 -614 11 -467 -1
-583 -4 -615 -15z m1184 -179 c8 -9 11 -104 9 -326 l-3 -313 -565 0 c-311 1
-570 2 -576 2 -13 1 -16 594 -3 628 l8 22 559 1 c462 0 561 -2 571 -14z"/>
<path d="M3063 3360 c0 -369 0 -370 21 -371 26 0 709 0 792 0 l61 1 0 370 0
370 -437 0 -437 0 0 -370z m693 0 l0 -190 -256 0 -256 0 0 190 0 190 256 0
256 0 0 -190z"/>
<path d="M4237 3202 c-20 -4 -19 12 -19 -224 l0 -188 -26 -1 c-137 -4 -1413
-1 -1418 4 -3 3 -6 96 -6 206 l0 201 -1384 0 -1384 0 1 -1317 c0 -761 4 -1339
10 -1368 33 -182 202 -345 384 -372 68 -10 6173 -10 6221 0 178 38 314 166
368 346 14 48 16 195 16 1382 0 731 -3 1329 -7 1329 -50 3 -2744 4 -2756 2z
m-1648 -374 c-1 -106 0 -200 0 -208 1 -13 108 -15 903 -15 l903 1 2 189 c1
105 2 198 3 208 0 16 64 17 1210 17 l1210 0 -1 -1227 c-1 -1352 3 -1275 -63
-1365 -26 -34 -53 -55 -103 -80 l-68 -33 -3090 1 -3090 1 -48 22 c-64 30 -122
87 -150 147 l-22 49 -3 1243 -2 1242 1204 0 1205 0 0 -192z"/>
</g>
</svg>
